<?xml version="1.0" encoding="utf-8"?>
<!-- Generator: Adobe Illustrator 17.0.0, SVG Export Plug-In . SVG Version: 6.00 Build 0)  -->
<!DOCTYPE svg PUBLIC "-//W3C//DTD SVG 1.1//EN" "http://www.w3.org/Graphics/SVG/1.1/DTD/svg11.dtd">
<svg version="1.1" id="Layer_1" xmlns="http://www.w3.org/2000/svg" xmlns:xlink="http://www.w3.org/1999/xlink" x="0px" y="0px"
	 width="14px" height="14px" viewBox="0 0 14 14" enable-background="new 0 0 14 14" xml:space="preserve">
<path fill="#FFFFFF" d="M8.414,7l3.536-3.536c0.391-0.391,0.391-1.024,0-1.414c-0.391-0.391-1.024-0.391-1.414,0L7,5.586L3.464,2.05
	C3.074,1.66,2.441,1.66,2.05,2.05c-0.391,0.391-0.391,1.024,0,1.414L5.586,7L2.05,10.536c-0.391,0.391-0.391,1.024,0,1.414
	c0.391,0.391,1.024,0.391,1.414,0L7,8.414l3.536,3.536c0.391,0.391,1.024,0.391,1.414,0c0.391-0.391,0.391-1.024,0-1.414L8.414,7z"
	/>
</svg>
