<?xml version="1.0" encoding="utf-8"?>
<!-- Generator: Adobe Illustrator 17.0.2, SVG Export Plug-In . SVG Version: 6.00 Build 0)  -->
<!DOCTYPE svg PUBLIC "-//W3C//DTD SVG 1.1//EN" "http://www.w3.org/Graphics/SVG/1.1/DTD/svg11.dtd">
<svg version="1.1" id="Layer_1" xmlns="http://www.w3.org/2000/svg" xmlns:xlink="http://www.w3.org/1999/xlink" x="0px" y="0px"
	 width="185.816px" height="34.667px" viewBox="0 0 185.816 34.667" enable-background="new 0 0 185.816 34.667"
	 xml:space="preserve">
<g>
	<path fill="#FFFFFF" d="M6.662,8.579h-3.48l-2.716,12.85H4.43c1.477,0,2.758-0.316,3.845-0.949s1.917-1.555,2.492-2.765
		s0.861-2.635,0.861-4.275c0-1.564-0.432-2.766-1.296-3.604S8.244,8.579,6.662,8.579z M8.332,16.546
		c-0.363,0.864-0.867,1.52-1.512,1.965s-1.4,0.668-2.268,0.668H3.621l1.775-8.367h1.011c0.797,0,1.408,0.236,1.833,0.708
		c0.425,0.472,0.637,1.159,0.637,2.061C8.877,14.693,8.695,15.682,8.332,16.546z"/>
	<polygon fill="#FFFFFF" points="14.088,21.429 16.768,21.429 19.51,8.579 16.83,8.579 	"/>
	<path fill="#FFFFFF" d="M25.525,8.891c-0.671,0.331-1.188,0.794-1.551,1.389s-0.545,1.27-0.545,2.026
		c0,0.656,0.164,1.269,0.492,1.837s0.896,1.143,1.705,1.723c0.58,0.434,0.943,0.732,1.09,0.896s0.259,0.341,0.338,0.531
		s0.119,0.412,0.119,0.664c0,0.434-0.185,0.774-0.554,1.024c-0.369,0.248-0.882,0.373-1.538,0.373c-0.967,0-2.016-0.316-3.146-0.949
		v2.408c0.791,0.527,1.834,0.791,3.129,0.791c1.482,0,2.657-0.355,3.524-1.068c0.867-0.711,1.301-1.68,1.301-2.904
		c0-0.756-0.176-1.417-0.527-1.982c-0.352-0.565-0.882-1.083-1.591-1.551c-0.674-0.439-1.107-0.792-1.301-1.059
		s-0.29-0.579-0.29-0.936c0-0.434,0.155-0.782,0.466-1.046s0.709-0.396,1.195-0.396c0.773,0,1.617,0.217,2.531,0.65l0.958-2.048
		c-1.055-0.58-2.218-0.87-3.489-0.87C26.967,8.395,26.195,8.56,25.525,8.891z"/>
	<polygon fill="#FFFFFF" points="42.788,8.579 39.194,12.947 37.805,14.749 39.141,8.579 36.451,8.579 33.736,21.429 36.416,21.429 
		37.374,16.841 38.473,16.226 40.327,21.429 43.298,21.429 40.74,14.731 45.961,8.579 	"/>
	<path fill="#FFFFFF" d="M92.811,8.579h-3.006l-2.716,12.85h3.094c1.535,0,2.874-0.316,4.017-0.949s2.021-1.535,2.637-2.707
		s0.923-2.522,0.923-4.052c0-1.676-0.42-2.952-1.261-3.828S94.428,8.579,92.811,8.579z M95.461,17.061
		c-0.478,0.979-1.165,1.735-2.062,2.272c-0.896,0.535-1.937,0.804-3.12,0.804h-1.424l2.197-10.266h1.564
		c1.166,0,2.051,0.324,2.654,0.971s0.905,1.601,0.905,2.861S95.939,16.082,95.461,17.061z"/>
	<polygon fill="#FFFFFF" points="100.157,21.429 106.617,21.429 106.907,20.093 101.942,20.093 102.944,15.382 107.593,15.382 
		107.848,14.046 103.216,14.046 104.077,9.924 109.052,9.924 109.333,8.579 102.873,8.579 	"/>
	<polygon fill="#FFFFFF" points="112.399,9.906 115.967,9.906 113.532,21.429 115.044,21.429 117.496,9.906 121.082,9.906 
		121.346,8.579 112.689,8.579 	"/>
	<polygon fill="#FFFFFF" points="122.284,21.429 128.744,21.429 129.034,20.093 124.069,20.093 125.07,15.382 129.72,15.382 
		129.975,14.046 125.343,14.046 126.204,9.924 131.179,9.924 131.46,8.579 125,8.579 	"/>
	<path fill="#FFFFFF" d="M136.908,9.432c-1.043,0.691-1.874,1.695-2.492,3.01s-0.927,2.738-0.927,4.267
		c0,1.512,0.404,2.706,1.213,3.581c0.809,0.877,1.922,1.314,3.34,1.314c0.645,0,1.195-0.041,1.652-0.123s0.938-0.214,1.441-0.396
		v-1.31c-1.072,0.334-2.016,0.501-2.83,0.501c-1.002,0-1.789-0.326-2.36-0.979c-0.571-0.654-0.856-1.528-0.856-2.624
		c0-1.295,0.235-2.492,0.707-3.59s1.11-1.932,1.916-2.5s1.719-0.853,2.738-0.853c0.826,0,1.644,0.202,2.452,0.606l0.606-1.239
		c-0.885-0.469-1.904-0.703-3.059-0.703C139.132,8.395,137.951,8.74,136.908,9.432z"/>
	<polygon fill="#FFFFFF" points="146.495,9.906 150.064,9.906 147.629,21.429 149.14,21.429 151.593,9.906 155.179,9.906 
		155.443,8.579 146.785,8.579 	"/>
	<polygon fill="#FFFFFF" points="156.74,21.429 158.217,21.429 160.95,8.579 159.474,8.579 	"/>
	<path fill="#FFFFFF" d="M168.692,16.727c-0.592,1.137-1.066,2.127-1.424,2.971h-0.035c0-0.814-0.059-1.796-0.176-2.944
		l-0.853-8.174h-1.494l1.424,12.85h1.582l6.864-12.85h-1.679L168.692,16.727z"/>
	<polygon fill="#FFFFFF" points="184.73,9.924 185.011,8.579 178.551,8.579 175.835,21.429 182.295,21.429 182.585,20.093 
		177.619,20.093 178.621,15.382 183.271,15.382 183.526,14.046 178.894,14.046 179.755,9.924 	"/>
	<path fill="#FFFFFF" d="M75.154,5.328c-2.441-2.441-5.64-3.661-8.839-3.661s-6.398,1.22-8.839,3.661
		c-4.882,4.882-4.882,12.796,0,17.678c2.441,2.441,5.64,3.661,8.839,3.661s6.398-1.22,8.839-3.661
		C80.036,18.124,80.036,10.209,75.154,5.328z M73.917,21.768c-2.03,2.03-4.73,3.149-7.601,3.149c-2.871,0-5.571-1.118-7.601-3.149
		c-4.191-4.191-4.191-11.011,0-15.203c2.03-2.03,4.73-3.149,7.601-3.149c2.871,0,5.571,1.118,7.601,3.149
		C78.108,10.757,78.108,17.577,73.917,21.768z"/>
	<path fill="#FFFFFF" d="M78.944,24.524l-2.271,2.271l5.641,5.641c0.627,0.627,1.644,0.627,2.271,0c0.627-0.627,0.627-1.644,0-2.271
		L78.944,24.524z"/>
	<path fill="#FFFFFF" d="M70.483,13.167h-3.167V10c0-0.552-0.447-1-1-1c-0.552,0-1,0.448-1,1v3.167h-3.167c-0.552,0-1,0.448-1,1
		s0.448,1,1,1h3.167v3.167c0,0.553,0.448,1,1,1c0.553,0,1-0.447,1-1v-3.167h3.167c0.553,0,1-0.448,1-1S71.035,13.167,70.483,13.167z
		"/>
</g>
</svg>
