<?xml version="1.0" encoding="utf-8"?>
<!-- Generator: Adobe Illustrator 17.0.0, SVG Export Plug-In . SVG Version: 6.00 Build 0)  -->
<!DOCTYPE svg PUBLIC "-//W3C//DTD SVG 1.1//EN" "http://www.w3.org/Graphics/SVG/1.1/DTD/svg11.dtd">
<svg version="1.1" id="Layer_1" xmlns="http://www.w3.org/2000/svg" xmlns:xlink="http://www.w3.org/1999/xlink" x="0px" y="0px"
	 width="19px" height="19px" viewBox="0 0 19 19" enable-background="new 0 0 19 19" xml:space="preserve">
<path id="Blue_2_" fill="#FFFFFF" d="M17.886,0.073H1.114c-0.575,0-1.041,0.466-1.041,1.041v16.773c0,0.574,0.466,1.041,1.041,1.041
	h9.03v-7.301H7.687V8.78h2.457V6.682c0-2.435,1.488-3.761,3.66-3.761c1.041,0,1.935,0.078,2.196,0.112v2.545l-1.507,0.001
	c-1.181,0-1.41,0.561-1.41,1.386V8.78h2.817l-0.367,2.845h-2.451v7.301h4.804c0.574,0,1.04-0.466,1.04-1.041V1.114
	C18.927,0.539,18.461,0.073,17.886,0.073z"/>
</svg>
