<?xml version="1.0" encoding="utf-8"?>
<!-- Generator: Adobe Illustrator 17.0.0, SVG Export Plug-In . SVG Version: 6.00 Build 0)  -->
<!DOCTYPE svg PUBLIC "-//W3C//DTD SVG 1.1//EN" "http://www.w3.org/Graphics/SVG/1.1/DTD/svg11.dtd">
<svg version="1.1" id="Layer_1" xmlns="http://www.w3.org/2000/svg" xmlns:xlink="http://www.w3.org/1999/xlink" x="0px" y="0px"
	 width="27px" height="27px" viewBox="0 0 27 27" enable-background="new 0 0 27 27" xml:space="preserve">
<g>
	<path fill="#FFFFFF" d="M20.287,20.498c-1.762,0-3.419-0.682-4.67-1.921c-0.204-0.183-0.861-0.849-2.073-2.757
		c-0.859,1.287-1.978,2.518-2.15,2.705l-0.028,0.029c-1.254,1.254-2.92,1.944-4.693,1.944s-3.44-0.69-4.693-1.944
		c-2.588-2.588-2.588-6.799,0-9.386c1.254-1.254,2.92-1.944,4.693-1.944c1.762,0,3.419,0.682,4.67,1.921
		c0.204,0.183,0.862,0.851,2.077,2.762c0.838-1.295,1.978-2.529,2.153-2.716l0.022-0.023c1.254-1.254,2.92-1.944,4.693-1.944
		c1.773,0,3.44,0.69,4.693,1.944c2.588,2.588,2.588,6.799,0,9.386C23.726,19.808,22.06,20.498,20.287,20.498z M16.899,17.137
		l0.043,0.033l0.014,0.021c0.889,0.889,2.072,1.379,3.329,1.379c1.258,0,2.44-0.49,3.329-1.379c1.836-1.836,1.836-4.823,0-6.659
		c-0.889-0.889-2.072-1.379-3.329-1.379c-1.252,0-2.43,0.486-3.318,1.368c-0.749,0.803-1.977,2.312-2.406,3.277
		C16.063,16.302,16.816,17.056,16.899,17.137z M6.672,9.153c-1.258,0-2.44,0.49-3.329,1.379c-1.836,1.836-1.836,4.823,0,6.659
		c0.889,0.889,2.072,1.379,3.329,1.379c1.251,0,2.428-0.485,3.315-1.365c0.537-0.587,1.861-2.145,2.43-3.245
		c-1.514-2.533-2.274-3.293-2.358-3.374l-0.043-0.033l-0.014-0.021C9.112,9.642,7.93,9.153,6.672,9.153z"/>
</g>
</svg>
