<?xml version="1.0" encoding="utf-8"?>
<!-- Generator: Adobe Illustrator 17.0.0, SVG Export Plug-In . SVG Version: 6.00 Build 0)  -->
<!DOCTYPE svg PUBLIC "-//W3C//DTD SVG 1.1//EN" "http://www.w3.org/Graphics/SVG/1.1/DTD/svg11.dtd">
<svg version="1.1" id="Layer_1" xmlns="http://www.w3.org/2000/svg" xmlns:xlink="http://www.w3.org/1999/xlink" x="0px" y="0px"
	 width="14px" height="14px" viewBox="0 0 14 14" enable-background="new 0 0 14 14" xml:space="preserve">
<g>
	<g>
		<path fill="#FFFFFF" d="M14,3c0,0.552-0.448,1-1,1H1C0.448,4,0,3.552,0,3l0,0c0-0.552,0.448-1,1-1h12C13.552,2,14,2.448,14,3L14,3
			z"/>
		<path fill="#FFFFFF" d="M14,7c0,0.552-0.448,1-1,1H1C0.448,8,0,7.552,0,7l0,0c0-0.552,0.448-1,1-1h12C13.552,6,14,6.448,14,7L14,7
			z"/>
		<path fill="#FFFFFF" d="M14,11c0,0.552-0.448,1-1,1H1c-0.552,0-1-0.448-1-1l0,0c0-0.552,0.448-1,1-1h12C13.552,10,14,10.448,14,11
			L14,11z"/>
	</g>
</g>
</svg>
