<?xml version="1.0" encoding="utf-8"?>
<!-- Generator: Adobe Illustrator 17.0.0, SVG Export Plug-In . SVG Version: 6.00 Build 0)  -->
<!DOCTYPE svg PUBLIC "-//W3C//DTD SVG 1.1//EN" "http://www.w3.org/Graphics/SVG/1.1/DTD/svg11.dtd">
<svg version="1.1" id="Layer_1" xmlns="http://www.w3.org/2000/svg" xmlns:xlink="http://www.w3.org/1999/xlink" x="0px" y="0px"
	 width="19px" height="19px" viewBox="0 0 19 19" enable-background="new 0 0 19 19" xml:space="preserve">
<g>
	<path fill="#FFFFFF" d="M9.5,0.1c-5.191,0-9.4,4.209-9.4,9.4c0,3.849,2.314,7.156,5.626,8.609C5.7,17.453,5.722,16.665,5.89,15.951
		C6.071,15.188,7.1,10.829,7.1,10.829s-0.3-0.6-0.3-1.487c0-1.393,0.807-2.433,1.813-2.433c0.855,0,1.268,0.642,1.268,1.411
		c0,0.859-0.548,2.145-0.83,3.335c-0.235,0.997,0.5,1.81,1.484,1.81c1.781,0,2.981-2.287,2.981-4.997
		c0-2.06-1.388-3.602-3.911-3.602c-2.851,0-4.628,2.126-4.628,4.501c0,0.819,0.242,1.397,0.62,1.844
		c0.174,0.206,0.198,0.288,0.135,0.524c-0.045,0.173-0.148,0.589-0.191,0.754c-0.063,0.238-0.256,0.323-0.471,0.235
		c-1.313-0.536-1.925-1.974-1.925-3.591c0-2.67,2.252-5.872,6.718-5.872c3.589,0,5.951,2.597,5.951,5.384
		c0,3.687-2.05,6.442-5.071,6.442c-1.015,0-1.969-0.548-2.297-1.171c0,0-0.546,2.166-0.661,2.584
		c-0.199,0.725-0.59,1.449-0.946,2.014C7.682,18.764,8.575,18.9,9.5,18.9c5.191,0,9.399-4.208,9.399-9.4
		C18.899,4.309,14.691,0.1,9.5,0.1z"/>
</g>
</svg>
