<?xml version="1.0" encoding="utf-8"?>
<!-- Generator: Adobe Illustrator 17.0.0, SVG Export Plug-In . SVG Version: 6.00 Build 0)  -->
<!DOCTYPE svg PUBLIC "-//W3C//DTD SVG 1.1//EN" "http://www.w3.org/Graphics/SVG/1.1/DTD/svg11.dtd">
<svg version="1.1" id="Layer_1" xmlns="http://www.w3.org/2000/svg" xmlns:xlink="http://www.w3.org/1999/xlink" x="0px" y="0px"
	 width="19px" height="19px" viewBox="0 0 19 19" enable-background="new 0 0 19 19" xml:space="preserve">
<path fill="#FFFFFF" d="M18.784,3.313c-0.681,0.302-1.413,0.506-2.182,0.598c0.784-0.47,1.387-1.215,1.67-2.102
	c-0.734,0.435-1.547,0.752-2.412,0.922c-0.693-0.738-1.68-1.199-2.773-1.199c-2.098,0-3.799,1.701-3.799,3.799
	c0,0.298,0.034,0.588,0.098,0.866c-3.157-0.159-5.957-1.671-7.83-3.97c-0.327,0.561-0.514,1.214-0.514,1.91
	c0,1.318,0.671,2.481,1.69,3.162c-0.623-0.02-1.209-0.191-1.721-0.475c0,0.016,0,0.032,0,0.048c0,1.841,1.309,3.376,3.047,3.725
	C3.74,10.684,3.404,10.73,3.057,10.73c-0.245,0-0.483-0.024-0.715-0.068c0.483,1.509,1.886,2.608,3.549,2.638
	c-1.3,1.019-2.938,1.626-4.718,1.626c-0.307,0-0.609-0.018-0.906-0.053c1.681,1.078,3.678,1.707,5.824,1.707
	c6.988,0,10.809-5.789,10.809-10.809c0-0.165-0.004-0.329-0.011-0.492C17.631,4.744,18.275,4.075,18.784,3.313z"/>
</svg>
